<?xml version="1.0" standalone="no"?>
<!DOCTYPE svg PUBLIC "-//W3C//DTD SVG 20010904//EN"
 "http://www.w3.org/TR/2001/REC-SVG-20010904/DTD/svg10.dtd">
<svg version="1.0" xmlns="http://www.w3.org/2000/svg"
 width="500.000000pt" height="500.000000pt" viewBox="0 0 500.000000 500.000000"
 preserveAspectRatio="xMidYMid meet">
<metadata>
Created by potrace 1.14, written by Peter Selinger 2001-2017
</metadata>
<g transform="translate(0.000000,500.000000) scale(0.100000,-0.100000)"
fill="#000000" stroke="none">
<path d="M655 4221 c-75 -35 -147 -112 -172 -184 -17 -49 -18 -127 -18 -1562
l0 -1510 22 -55 c47 -116 156 -191 283 -196 41 -1 65 0 53 2 -13 3 -23 9 -23
14 0 4 -10 10 -23 14 -61 15 -151 126 -172 211 -4 17 -9 39 -13 50 -3 11 -8
331 -11 710 -6 647 -5 691 12 714 23 32 22 76 -3 101 -12 12 -18 25 -16 29 3
5 6 294 7 642 1 691 5 772 44 858 39 85 123 162 161 147 8 -3 14 -1 14 4 0 10
69 8 86 -2 19 -11 409 -2 438 10 33 14 46 5 46 -34 0 -26 30 -54 58 -54 29 0
62 34 62 63 0 32 8 37 39 25 17 -6 289 -9 794 -9 l767 1 2 -247 2 -248 6 245
c4 135 8 246 9 248 18 34 21 -139 21 -1425 0 -784 3 -1424 6 -1420 3 3 5 644
5 1425 l-2 1420 143 2 c79 0 162 5 185 9 49 10 53 7 53 -30 0 -39 41 -66 78
-53 24 8 33 24 48 81 2 8 13 9 41 2 21 -5 155 -10 298 -10 242 0 262 -2 292
-20 48 -30 93 -93 121 -168 l25 -66 4 -703 c5 -661 4 -704 -13 -723 -22 -25
-22 -73 0 -98 17 -18 17 -62 13 -713 -2 -381 -7 -706 -11 -723 -29 -123 -105
-216 -226 -278 -8 -4 17 -6 55 -4 133 7 245 94 284 222 21 67 21 76 21 1545 0
1468 0 1478 -21 1545 -27 89 -105 172 -192 204 l-58 21 -1782 0 -1782 0 -60
-29z m792 -17 c9 -23 -13 -40 -32 -24 -12 10 -13 16 -4 26 15 18 28 18 36 -2z
m2152 2 c9 -10 8 -16 -4 -26 -19 -16 -41 1 -32 24 8 20 21 20 36 2z m-3068
-1702 c-16 -12 -21 -22 -17 -39 5 -18 2 -23 -11 -21 -9 2 -19 9 -21 16 -3 7 0
10 7 6 13 -9 14 3 2 24 -14 21 -4 30 32 30 l31 0 -23 -16z m3994 -24 c0 -43 0
-43 -57 -34 -32 6 -36 9 -34 32 3 27 24 39 71 41 17 1 20 -5 20 -39z m-3954
-3 c-10 -26 -44 -29 -49 -4 -2 11 5 20 20 26 30 11 39 5 29 -22z m-11 -1512
c0 -3 -2 -5 -5 -5 -3 0 -5 2 -5 5 0 3 2 5 5 5 3 0 5 -2 5 -5z M1420 4195 c0
-3 2 -5 5 -5 3 0 5 2 5 5 0 3 -2 5 -5 5 -3 0 -5 -2 -5 -5z M3580 4195 c0 -3 2
-5 5 -5 3 0 5 2 5 5 0 3 -2 5 -5 5 -3 0 -5 -2 -5 -5z M4488 2477 c-3 -19 -2
-25 4 -19 6 6 8 18 6 28 -3 14 -5 12 -10 -9z M560 2495 c0 -3 2 -5 5 -5 3 0 5
2 5 5 0 3 -2 5 -5 5 -3 0 -5 -2 -5 -5z M540 2475 c0 -3 2 -5 5 -5 3 0 5 2 5 5
0 3 -2 5 -5 5 -3 0 -5 -2 -5 -5z M3094 3360 c0 -157 3 -242 6 -190 3 52 3 181
0 285 -6 177 -6 170 -6 -95z M3094 2800 c0 -113 2 -159 3 -102 2 56 2 148 0
205 -1 56 -3 10 -3 -103z M3094 2480 c0 -58 1 -81 3 -52 2 28 2 76 0 105 -2
28 -3 5 -3 -53z M3094 2200 c0 -91 2 -128 3 -82 2 45 2 119 0 165 -1 45 -3 8
-3 -83z M3090 1671 c0 -161 3 -290 8 -288 8 6 6 566 -3 575 -3 3 -5 -126 -5
-287z M2950 1268 c-5 -13 -32 -129 -60 -258 -27 -129 -54 -250 -59 -267 l-10
-33 295 0 294 0 -5 23 c-8 34 -74 352 -92 442 -24 118 -18 115 -200 115 -150
0 -154 -1 -163 -22z m192 -60 c21 -38 18 -43 -23 -40 -44 5 -46 8 -23 40 19
28 30 28 46 0z m-92 -23 c0 -3 -2 -5 -5 -5 -3 0 -5 2 -5 5 0 3 2 5 5 5 3 0 5
-2 5 -5z m140 -10 c0 -3 -2 -5 -5 -5 -3 0 -5 2 -5 5 0 3 2 5 5 5 3 0 5 -2 5
-5z m-140 -10 c0 -3 -2 -5 -5 -5 -3 0 -5 2 -5 5 0 3 2 5 5 5 3 0 5 -2 5 -5z
m235 -72 c-2 -16 -9 -48 -15 -73 -7 -25 -16 -62 -21 -82 -9 -34 -14 -39 -61
-53 -28 -8 -54 -12 -59 -9 -5 3 -9 -2 -9 -10 0 -10 -9 -16 -22 -17 -13 0 -46
-2 -75 -4 -51 -3 -52 -3 -63 29 -6 18 -8 42 -4 52 5 16 4 16 -5 4 -8 -12 -11
-8 -11 18 0 17 -4 32 -10 32 -5 0 -10 6 -10 14 0 18 193 86 330 116 19 4 36 8
37 9 2 0 1 -11 -2 -26z m-20 -240 c27 -37 -14 -71 -69 -57 -13 3 -27 1 -30 -5
-9 -14 -46 -14 -46 -1 0 6 -16 10 -35 10 -19 0 -35 3 -35 8 0 9 82 44 88 37 3
-3 0 -5 -6 -5 -7 0 -12 -7 -12 -15 0 -23 18 -18 50 15 33 34 76 40 95 13z
m-145 -98 c0 -3 -2 -5 -5 -5 -3 0 -5 2 -5 5 0 3 2 5 5 5 3 0 5 -2 5 -5z m20 0
c0 -3 -2 -5 -5 -5 -3 0 -5 2 -5 5 0 3 2 5 5 5 3 0 5 -2 5 -5z M3125 1190 c3
-5 8 -10 11 -10 3 0 2 5 -1 10 -3 6 -8 10 -11 10 -3 0 -2 -4 1 -10z M3200 845
c0 -3 2 -5 5 -5 3 0 5 2 5 5 0 3 -2 5 -5 5 -3 0 -5 -2 -5 -5z M1396 817 c-10
-8 -21 -31 -25 -53 l-6 -39 -67 -3 c-46 -2 -77 2 -97 12 -36 19 -96 18 -136
-2 -16 -8 -38 -19 -47 -23 -10 -5 -56 -9 -102 -9 l-85 0 3 -172 4 -173 37 -3
c43 -4 64 16 65 61 0 22 5 27 25 27 37 0 46 29 43 139 -2 55 0 102 4 106 27
27 228 26 228 -1 0 -10 15 -14 55 -14 48 0 55 2 55 20 0 19 7 20 121 20 77 0
118 -4 114 -10 -6 -10 37 -14 47 -5 3 3 41 7 85 10 71 3 80 2 79 -13 -1 -14 9
-18 52 -20 47 -3 52 -1 52 18 0 21 3 21 118 16 64 -3 128 -5 142 -5 86 0 641
15 623 17 -13 1 -23 7 -23 12 0 6 -9 10 -20 10 -11 0 -20 4 -20 10 0 12 -476
8 -504 -5 -14 -6 -17 -5 -12 3 9 15 -26 3 -36 -12 -5 -7 -8 -7 -8 2 0 9 -7 11
-21 7 -14 -5 -25 -2 -30 6 -6 10 -9 10 -9 2 0 -7 -9 -10 -22 -6 -53 13 -86 14
-92 4 -4 -6 -20 -11 -37 -11 -16 0 -29 -4 -29 -8 0 -10 -113 -16 -141 -7 -10
4 -17 9 -15 13 2 4 -29 5 -70 2 -41 -3 -74 -2 -74 1 0 3 -17 4 -37 1 -21 -2
-46 -5 -55 -5 -10 -1 -18 -6 -18 -12 -1 -23 -20 22 -20 47 0 46 -56 73 -94 45z
m59 -37 c4 -6 1 -17 -5 -25 -16 -19 -52 -2 -44 20 7 17 40 20 49 5z m-348 -47
c-4 -3 -10 -3 -14 0 -3 4 0 7 7 7 7 0 10 -3 7 -7z m-181 -142 c-11 -12 -16
-37 -16 -74 0 -31 -5 -59 -12 -63 -6 -4 -8 -3 -4 4 3 6 2 13 -3 16 -13 9 -2
94 15 122 9 13 20 21 26 18 5 -3 3 -13 -6 -23z m34 -96 c0 -3 -2 -5 -5 -5 -3
0 -5 2 -5 5 0 3 2 5 5 5 3 0 5 -2 5 -5z M3541 811 c-22 -22 -31 -101 -11 -101
6 0 10 8 10 18 0 9 9 28 19 41 21 28 51 23 51 -8 0 -28 11 -52 21 -45 13 8 11
68 -3 87 -22 28 -63 32 -87 8z M1230 735 c0 -3 2 -5 5 -5 3 0 5 2 5 5 0 3 -2
5 -5 5 -3 0 -5 -2 -5 -5z M3910 728 c0 -4 -12 -9 -27 -9 -16 -1 -1 -5 31 -10
33 -5 62 -7 64 -4 3 3 11 -3 18 -13 9 -11 13 -51 14 -122 0 -109 7 -130 42
-130 13 0 18 -8 18 -28 0 -39 30 -64 72 -60 l33 3 3 173 2 172 -90 0 c-53 0
-90 4 -90 10 0 6 -15 10 -32 11 -28 0 -30 2 -13 9 16 7 14 9 -12 7 -18 -1 -33
-5 -33 -9z m196 -133 c18 -17 21 -122 5 -138 -8 -8 -11 6 -11 53 0 45 -5 69
-17 82 -20 22 1 25 23 3z M2824 583 c4 -65 11 -122 15 -126 10 -10 181 -16
646 -22 323 -5 351 -4 362 12 9 11 13 56 13 135 l0 118 -232 -1 c-220 -1 -479
-14 -363 -18 28 -1 70 -9 95 -18 34 -13 91 -18 233 -23 172 -5 190 -7 203 -24
17 -24 19 -106 2 -106 -6 0 -9 -3 -5 -6 3 -4 0 -13 -8 -20 -11 -11 -72 -14
-313 -14 l-300 0 -7 36 c-3 20 -5 70 -4 112 l2 77 -48 0 -49 0 3 -96 3 -96
-81 -2 c-115 -3 -121 3 -121 111 l0 88 -26 0 -27 0 7 -117z m313 -45 c-2 -24
-4 -7 -4 37 0 44 2 63 4 43 2 -21 2 -57 0 -80z M3760 485 c0 -3 2 -5 5 -5 3 0
5 2 5 5 0 3 -2 5 -5 5 -3 0 -5 -2 -5 -5z"/>
</g>
</svg>
