<?xml version="1.0" standalone="no"?>
<!DOCTYPE svg PUBLIC "-//W3C//DTD SVG 20010904//EN"
 "http://www.w3.org/TR/2001/REC-SVG-20010904/DTD/svg10.dtd">
<svg version="1.0" xmlns="http://www.w3.org/2000/svg"
 width="500.000000pt" height="500.000000pt" viewBox="0 0 500.000000 500.000000"
 preserveAspectRatio="xMidYMid meet">
<metadata>
Created by potrace 1.16, written by Peter Selinger 2001-2019
</metadata>
<g transform="translate(0.000000,500.000000) scale(0.100000,-0.100000)"
fill="#000000" stroke="none">
<path d="M1653 3338 c-358 -359 -659 -669 -669 -688 -28 -55 -25 -163 5 -222
14 -27 25 -48 26 -48 1 0 50 18 109 40 287 108 669 200 1006 244 89 12 268 25
410 32 80 3 146 8 148 9 2 2 -2 67 -8 146 -26 323 -98 612 -219 874 -43 92
-141 265 -151 265 -3 0 -298 -294 -657 -652z"/>
<path d="M2715 3945 c101 -427 134 -702 129 -1047 l-4 -208 45 0 c80 0 347
-31 485 -56 176 -33 339 -74 512 -131 76 -25 142 -42 146 -38 4 4 7 39 7 78
-1 54 -6 82 -22 112 -13 23 -291 309 -663 680 -494 493 -641 633 -635 610z"/>
<path d="M2933 2542 c-107 -3 -113 -4 -118 -25 -3 -12 -17 -78 -31 -147 -14
-69 -48 -192 -75 -274 -27 -82 -48 -150 -46 -152 1 -1 119 -4 262 -7 143 -3
332 -13 419 -22 l159 -17 251 251 c215 216 248 254 233 262 -30 17 -305 77
-452 99 -77 11 -205 23 -285 26 -80 2 -158 6 -175 7 -16 1 -81 1 -142 -1z"/>
<path d="M2495 2499 c-361 -63 -687 -172 -1028 -347 l-149 -75 159 -158 158
-159 100 30 c235 70 599 130 875 144 21 1 26 7 32 43 11 66 36 317 44 436 l6
107 -43 -1 c-24 0 -93 -9 -154 -20z"/>
<path d="M3140 1875 c-432 -45 -799 -167 -1099 -365 l-94 -62 193 -193 c224
-224 260 -249 360 -248 45 0 79 6 110 21 32 16 162 139 465 442 l420 420 -115
-1 c-63 -1 -171 -7 -240 -14z"/>
</g>
</svg>
