<?xml version="1.0" standalone="no"?>
<!DOCTYPE svg PUBLIC "-//W3C//DTD SVG 20010904//EN"
 "http://www.w3.org/TR/2001/REC-SVG-20010904/DTD/svg10.dtd">
<svg version="1.0" xmlns="http://www.w3.org/2000/svg"
 width="512.000000pt" height="512.000000pt" viewBox="0 0 512.000000 512.000000"
 preserveAspectRatio="xMidYMid meet">

<g transform="translate(0.000000,512.000000) scale(0.100000,-0.100000)"
fill="#000000" stroke="none">
<path d="M1387 4776 c-81 -30 -137 -86 -157 -157 -6 -19 -10 -69 -10 -111 l0
-78 -167 0 c-202 0 -276 -14 -392 -71 -115 -57 -212 -153 -269 -266 -77 -156
-73 -44 -70 -1748 4 -1687 -3 -1534 70 -1683 47 -96 168 -215 269 -265 145
-71 62 -68 1627 -65 l1407 3 65 24 c183 66 218 98 513 469 404 507 425 535
462 613 67 141 65 95 65 1325 0 1073 -1 1113 -20 1188 -45 179 -163 327 -321
405 -116 57 -190 71 -391 71 l-168 0 0 78 c0 100 -13 144 -57 193 -59 65 -104
84 -203 84 -93 0 -139 -17 -194 -71 -48 -49 -60 -82 -64 -186 l-4 -98 -819 0
-819 0 0 78 c0 42 -5 94 -11 115 -13 48 -70 112 -123 139 -52 27 -165 34 -219
14z m152 -161 c16 -8 31 -22 35 -30 3 -9 6 -115 6 -235 0 -120 -3 -226 -6
-235 -9 -22 -57 -45 -94 -45 -37 0 -85 23 -94 45 -3 9 -6 117 -6 239 0 163 3
226 13 238 31 39 96 49 146 23z m2160 0 c16 -8 31 -22 35 -30 8 -22 8 -448 0
-470 -9 -22 -57 -45 -94 -45 -37 0 -85 23 -94 45 -3 9 -6 117 -6 239 0 163 3
226 13 238 31 39 96 49 146 23z m-2479 -422 c0 -101 13 -145 57 -194 59 -65
104 -84 203 -84 99 0 144 19 203 84 44 49 57 93 57 194 l0 77 819 0 819 0 4
-92 c5 -109 25 -157 88 -210 47 -41 97 -58 170 -58 83 0 129 19 185 75 60 59
75 101 75 209 l0 76 160 0 c175 0 237 -9 320 -48 72 -34 178 -140 212 -212 42
-89 48 -144 48 -410 l0 -250 -2080 0 -2080 0 0 250 c0 145 5 271 11 302 19 89
58 158 128 229 113 112 190 137 434 138 l167 1 0 -77z m3420 -1700 c0 -384 -3
-742 -7 -795 l-6 -97 -316 -3 -316 -3 -63 -34 c-70 -38 -100 -69 -140 -145
l-27 -51 -5 -419 -5 -419 -40 -16 c-36 -14 -183 -16 -1430 -19 -968 -2 -1406
1 -1442 8 -169 36 -321 190 -353 359 -6 34 -10 472 -10 1192 l0 1139 2080 0
2080 0 0 -697z m-100 -1060 c0 -11 -108 -152 -364 -472 l-251 -314 -3 319 c-1
175 0 333 3 351 7 40 49 91 90 109 22 10 94 13 278 14 136 0 247 -3 247 -7z"/>
<path d="M2357 2999 c-20 -12 -677 -1319 -677 -1348 0 -11 11 -33 24 -48 l24
-28 216 -3 216 -3 0 -449 0 -449 23 -27 c29 -33 76 -37 108 -8 29 26 669 1308
669 1340 0 14 -11 36 -25 49 -24 25 -24 25 -240 25 l-215 0 0 455 0 456 -25
24 c-25 26 -67 32 -98 14z m-9 -1081 c21 -22 32 -23 211 -28 l189 -5 -214
-425 -213 -425 0 323 -1 323 -25 24 c-24 25 -26 25 -215 25 l-190 0 213 425
212 425 5 -320 c5 -316 5 -320 28 -342z"/>
</g>
</svg>
